<?xml version="1.0" encoding="UTF-8" standalone="no"?>
<svg width="512" height="512" viewBox="0 0 512 512" fill="none" xmlns="http://www.w3.org/2000/svg">
  <rect width="512" height="512" rx="128" fill="#4A90E2"/>
  <g transform="translate(128, 96) scale(1.2)">
    <path d="M96 0a96 96 0 0 1 96 96v48a96 96 0 1 1-192 0V96A96 96 0 0 1 96 0zM64 240c0 8.8 7.2 16 16 16h32c8.8 0 16-7.2 16-16v-48H64v48zm192-48v48c0 52.9-43.1 96-96 96s-96-43.1-96-96v-48H48c-26.5 0-48 21.5-48 48v128c0 8.8 7.2 16 16 16h16v48c0 8.8 7.2 16 16 16h16c8.8 0 16-7.2 16-16v-48h192v48c0 8.8 7.2 16 16 16h16c8.8 0 16-7.2 16-16v-48h16c8.8 0 16-7.2 16-16V240c0-26.5-21.5-48-48-48H256z" fill="white"/>
  </g>
</svg>
